<svg id="Layer_1" data-name="Layer 1" xmlns="http://www.w3.org/2000/svg" version="1.1" viewBox="525 30 945 310"><defs></defs><path class="cls-3" d="M812.27 81.6h46.89v245.13h-46.89V81.6z"></path><path d="M1110.28 277.76v48.97H962.91V81.6h49.12v196.16h98.26zm203.59-147.1h-61.69v196.06h-50.62V130.66h-61.86V81.92h174.14v48.74h.03z" stroke-width="0" fill="#2c3848"></path><path class="cls-3" d="M649.24 326.73L759.71 81.6h-52.09l-62.18 142.31L583.42 81.6h-51.48l110.02 245.13h7.28zM103.21 217.12c2.48 3.13 3.72 7.33 3.72 11.76s-1.01 8.45-3.72 11.76c-2.6 3.25-6.8 5.08-11 5.08-3.55 0-6.74-.95-9.22-2.84v1.95H75.9v-42.57H84v11.94c2.25-1.36 4.97-2.19 7.8-2.19 4.43 0 8.69 1.71 11.41 5.08zm-6.38 18.62c1.12-1.65 1.6-4.14 1.6-6.86s-.59-5.2-1.71-6.86c-1.36-2.07-3.43-2.84-6.09-2.84-2.19 0-4.08.71-5.38 2.25-1.54 1.77-2.25 4.55-2.25 7.45s.71 5.73 2.25 7.45c1.42 1.54 3.37 2.25 5.68 2.25s4.55-.77 5.91-2.84zm32.67-23.65c1.71-.12 3.55.18 5.32.89v7.45c-1.65-.65-3.84-1.01-6.15-.83-2.31.18-3.96 1.01-5.08 2.19-1.42 1.54-2.07 3.67-2.07 6.03v17.03h-8.1v-31.92h7.09v4.37c.83-1.42 1.95-2.66 3.43-3.55 1.71-1.06 3.67-1.54 5.56-1.65zm16.61 19.04c.24 1.6.71 3.13 1.66 4.38 1.3 1.77 3.49 2.72 5.85 2.72 1.89 0 3.37-.47 4.55-1.42 1.18-.95 1.71-1.83 2.07-2.6l8.04 2.31c-1.06 2.6-3.07 5.08-5.56 6.68-2.48 1.6-5.68 2.54-8.63 2.54-4.85 0-9.81-1.83-12.71-5.32-2.6-3.19-3.9-7.03-3.9-11.11 0-4.61 1.36-8.87 3.9-11.94 2.96-3.49 7.51-5.32 12.24-5.32s8.45 1.54 11.41 5.03c3.19 3.72 3.96 8.51 3.55 14.07h-22.47zm7.5-12.12c-2.07 0-4.2.59-5.79 2.6-.83 1.06-1.24 2.13-1.54 3.31h14.25c-.12-1.3-.47-2.48-1.3-3.55-1.24-1.6-3.43-2.36-5.62-2.36zm47.78 25.84h-7.04v-3.9c-3.19 3.67-6.09 4.79-11 4.79-6.44 0-10.52-3.9-10.52-9.87 0-4.14 1.6-7.33 5.62-9.16s10.76-2.54 14.96-3.13c-.53-2.31-2.48-3.96-6.15-3.96-3.13 0-5.91 1.18-7.98 3.01l-4.61-5.32c3.37-3.19 7.45-5.26 13.18-5.26 3.49 0 7.04 1.54 9.34 3.49 3.13 2.66 4.2 6.27 4.2 10.29v19.04zm-9.04-9.46c1.12-1.71 1.06-3.9 1.06-5.56-1.89.35-5.03 1-8.04 1.65-2.42.53-4.61 1.66-4.61 3.78s1.95 3.78 4.55 3.78c3.07 0 5.62-1.54 7.03-3.67zm24.95-2.72v12.18h-8.22l.06-42.57h8.16v22.82h3.78l7.69-12.18h8.93l-10.11 15.9 10.88 16.02h-9.1l-8.28-12.18h-3.78zm25.91-31.28h8.04v7.09h-8.04v-7.09zm0 11.53h8.04v31.92h-8.04v-31.92zm43.35 2.54c3.49 3.43 3.49 8.99 3.49 13.95v15.43h-8.16v-15.08c0-3.31-.47-6.62-2.13-8.4-1.12-1.24-2.84-1.89-5.03-1.83-1.48.06-2.72.47-3.78 1.24-1.18.89-2.01 2.31-2.36 4.08-.3 1.42-.35 3.9-.35 6.09v13.89h-8.1v-31.92h7.09v3.31c.12-.12.3-.3.41-.47 2.07-2.48 5.32-3.55 8.22-3.72 3.78-.24 7.63.41 10.7 3.43zm33.32-2.54h7.04v34.11c0 4.97-1.89 8.51-5.91 10.76-3.25 1.83-6.27 2.07-9.05 2.07-2.07 0-4.79-.59-6.68-1.42-2.31-1.12-4.67-3.07-6.03-5.44l7.45-3.61c.41.77 1.01 1.36 1.71 1.89 1.01.71 2.6 1.01 3.61 1.01 1.83 0 3.72-.53 4.91-1.42 1.48-1.12 2.01-2.31 1.95-3.96v-3.31c-2.31 1.42-5.14 2.13-8.22 2.13-4.2 0-8.39-1.83-11-5.08-2.72-3.31-3.72-7.39-3.72-11.76s1.24-8.63 3.72-11.76c2.72-3.37 6.98-5.08 11.41-5.08 3.25 0 6.38 1.06 8.81 2.9v-2.01zm-7.93 25.66c2.31 0 4.26-.71 5.68-2.25 1.54-1.71 2.25-4.55 2.25-7.45s-.71-5.68-2.25-7.45c-1.3-1.54-3.19-2.25-5.38-2.25-2.66 0-4.73.77-6.09 2.84-1.12 1.65-1.71 4.14-1.71 6.86s.47 5.2 1.6 6.86c1.36 2.07 3.67 2.84 5.91 2.84zm-208.74 60.07c2.48 3.13 3.72 7.33 3.72 11.76s-1.01 8.45-3.72 11.76c-2.6 3.25-6.8 5.08-11 5.08-3.55 0-6.74-.95-9.22-2.84v1.95H75.9v-42.57H84v11.94c2.25-1.36 4.97-2.19 7.8-2.19 4.43 0 8.69 1.71 11.41 5.08zm-6.38 18.63c1.12-1.65 1.6-4.14 1.6-6.86s-.59-5.2-1.71-6.86c-1.36-2.07-3.43-2.84-6.09-2.84-2.19 0-4.08.71-5.38 2.25-1.54 1.77-2.25 4.55-2.25 7.45s.71 5.73 2.25 7.45c1.42 1.54 3.37 2.25 5.68 2.25s4.55-.77 5.91-2.84zm30.96 9.99c-4.73 0-9.28-1.83-12.24-5.32-2.72-3.31-3.9-7.15-3.9-11.53s1.36-8.45 3.9-11.53c2.96-3.49 7.57-5.32 12.24-5.32s9.28 1.77 12.24 5.32c2.84 3.37 3.96 7.21 3.96 11.53 0 4.55-1.24 8.16-3.96 11.53-3.02 3.55-7.45 5.32-12.24 5.32zm7.68-16.85c0-2.42-.47-4.91-1.83-6.68-1.3-1.77-3.49-2.66-5.85-2.66s-4.55.89-5.85 2.66c-1.36 1.77-1.77 4.26-1.77 6.68s.41 4.85 1.77 6.62c1.3 1.77 3.49 2.72 5.85 2.72s4.55-.95 5.85-2.72c1.36-1.77 1.83-4.2 1.83-6.62zm36.25-15.96h8.1v31.92h-7.09v-3.31c-.12.12-.3.3-.41.47-2.07 2.48-5.32 3.55-8.22 3.72-3.78.24-7.63-.41-10.7-3.43-3.49-3.43-3.49-8.99-3.49-13.95v-15.43h8.16v15.08c0 3.31.47 6.62 2.13 8.4 1.12 1.24 2.84 1.89 5.03 1.83 1.48-.06 2.72-.47 3.78-1.24 1.18-.89 2.01-2.31 2.36-4.08.3-1.42.35-3.9.35-6.09v-13.89zm43.95 2.54c3.49 3.43 3.49 8.99 3.49 13.95v15.43H211V311.3c0-3.31-.47-6.62-2.13-8.4-1.12-1.24-2.84-1.89-5.03-1.83-1.48.06-2.72.47-3.78 1.24-1.18.89-2.01 2.31-2.36 4.08-.3 1.42-.35 3.9-.35 6.09v13.89h-8.1v-31.92h7.09v3.31c.12-.12.3-.3.41-.47 2.07-2.48 5.32-3.55 8.22-3.72 3.78-.24 7.63.41 10.7 3.43zm32.31-13.19h8.1v42.57h-7.09v-1.95c-2.48 1.89-5.68 2.84-9.22 2.84-4.2 0-8.4-1.83-11-5.08-2.72-3.31-3.72-7.39-3.72-11.76s1.24-8.63 3.72-11.76c2.72-3.37 6.98-5.08 11.41-5.08 2.84 0 5.56.83 7.8 2.19v-11.94zm-1.24 34.06c1.54-1.71 2.25-4.55 2.25-7.45s-.71-5.68-2.25-7.45c-1.3-1.54-3.19-2.25-5.38-2.25-2.66 0-4.73.77-6.09 2.84-1.12 1.65-1.71 4.14-1.71 6.86s.47 5.2 1.6 6.86c1.36 2.07 3.67 2.84 5.91 2.84s4.26-.71 5.68-2.25zm44.38 8.51h-7.03v-3.9c-3.19 3.67-6.09 4.79-11 4.79-6.44 0-10.52-3.9-10.52-9.87 0-4.14 1.6-7.33 5.62-9.16s10.76-2.54 14.96-3.13c-.53-2.31-2.48-3.96-6.15-3.96-3.13 0-5.91 1.18-7.98 3.01l-4.61-5.32c3.37-3.19 7.45-5.26 13.18-5.26 3.49 0 7.04 1.54 9.34 3.49 3.13 2.66 4.2 6.27 4.2 10.29v19.04zm-9.04-9.46c1.12-1.71 1.06-3.9 1.06-5.56-1.89.35-5.03 1-8.04 1.65-2.42.53-4.61 1.66-4.61 3.78s1.95 3.78 4.55 3.78c3.07 0 5.62-1.54 7.04-3.67zm32.82-23.29c1.71-.12 3.55.18 5.32.89v7.45c-1.65-.65-3.84-1.01-6.15-.83-2.31.18-3.96 1.01-5.08 2.19-1.42 1.54-2.07 3.67-2.07 6.03v17.03h-8.1v-31.92h7.09v4.37c.83-1.42 1.95-2.66 3.43-3.55 1.71-1.06 3.67-1.54 5.56-1.65zm11.5-10.7h8.04v7.09h-8.04v-7.09zm0 11.53h8.04v31.92h-8.04v-31.92zm23.78 18.2c.24 1.6.71 3.13 1.66 4.38 1.3 1.77 3.49 2.72 5.85 2.72 1.89 0 3.37-.47 4.55-1.42 1.18-.95 1.71-1.83 2.07-2.6l8.04 2.31c-1.06 2.6-3.07 5.08-5.56 6.68-2.48 1.6-5.68 2.54-8.63 2.54-4.85 0-9.81-1.83-12.71-5.32-2.6-3.19-3.9-7.03-3.9-11.11 0-4.61 1.36-8.87 3.9-11.94 2.96-3.49 7.51-5.32 12.24-5.32s8.45 1.54 11.41 5.03c3.19 3.72 3.96 8.51 3.55 14.07h-22.47zm7.51-12.12c-2.07 0-4.2.59-5.79 2.6-.83 1.06-1.24 2.13-1.54 3.31h14.25c-.12-1.3-.47-2.48-1.3-3.55-1.24-1.6-3.43-2.36-5.62-2.36zm47.38 2.31l-7.51 1.89c-1.18-3.02-3.67-4.14-6.56-4.26-2.48-.12-5.08.95-5.08 2.54 0 1.36 1.54 1.71 3.49 2.25l5.91 1.66c6.03 1.66 10.05 4.97 10.05 10.23 0 3.25-1.77 6.33-4.55 7.98-2.72 1.71-5.32 2.13-8.4 2.13-4.67 0-8.69-1-11.53-4.32-2.13-2.48-2.9-4.67-3.37-6.86l7.21-1.83c.35 1.42 1.06 3.01 1.89 3.9 1.6 1.65 3.78 2.19 5.97 2.19 1.18 0 3.37-.35 4.32-1.06.83-.59 1.24-1.12 1.24-2.01 0-1.95-2.36-2.36-4.61-3.01-6.09-1.71-7.09-1.95-8.1-2.36-1.83-.77-3.96-1.95-5.14-3.49-1.12-1.42-1.6-3.72-1.6-5.08 0-4.02 2.48-7.15 5.79-8.57 2.48-1.06 4.79-1.18 6.98-1.18s4.61.47 6.8 1.6c3.07 1.48 5.56 4.37 6.8 7.69z"></path><path class="cls-2" d="M1466.32 105.92l-33.1-33.11-38.02-38.01-30.24 30.24 38.02 38.01 2.86 2.87-2.86 2.87-38.02 38.01 30.24 30.24 38.02-38.01 33.1-33.11z"></path></svg>